<?xml version="1.0" standalone="no"?>
<!DOCTYPE svg PUBLIC "-//W3C//DTD SVG 20010904//EN"
 "http://www.w3.org/TR/2001/REC-SVG-20010904/DTD/svg10.dtd">
<svg version="1.0" xmlns="http://www.w3.org/2000/svg"
 width="3512.000000pt" height="2484.000000pt" viewBox="0 0 3512.000000 2484.000000"
 preserveAspectRatio="xMidYMid meet">

<g transform="translate(0.000000,2484.000000) scale(0.100000,-0.100000)"
fill="#000000" stroke="none">
<path d="M5200 14785 l0 -415 -123 0 c-68 0 -127 -4 -133 -8 -5 -5 -30 -17
-57 -26 -54 -20 -90 -61 -106 -121 -6 -23 -11 -130 -11 -250 0 -234 -7 -265
-73 -332 l-31 -33 31 -32 c65 -69 67 -79 73 -348 4 -204 8 -250 22 -276 23
-41 74 -84 110 -91 15 -3 31 -10 34 -14 3 -5 63 -9 135 -9 l129 0 0 -1050 0
-1050 337 -2 338 -3 26 -80 c14 -44 38 -104 52 -132 26 -50 28 -52 60 -46 73
14 280 74 356 103 91 35 216 114 255 161 24 28 35 69 19 69 -6 0 -225 -59
-315 -85 -27 -8 -48 -12 -48 -10 0 8 96 46 193 76 56 17 121 40 145 51 l42 20
0 59 c0 71 4 68 -188 128 -73 23 -130 46 -128 50 3 5 71 -10 151 -32 80 -22
148 -37 151 -34 10 10 -7 48 -38 83 -65 74 -243 156 -458 212 -188 49 -166 50
-197 -13 l-27 -55 -103 0 -103 0 0 784 0 784 218 4 c202 4 223 6 297 31 183
60 326 185 353 308 6 30 21 122 32 204 22 169 31 203 63 259 33 57 63 75 138
82 81 8 129 -12 166 -67 36 -55 50 -113 74 -297 11 -93 30 -190 41 -221 47
-126 246 -261 428 -290 36 -6 145 -11 243 -11 l177 0 0 -785 0 -785 -100 0
-99 0 -19 43 c-31 69 -31 69 -177 32 -232 -59 -383 -124 -465 -201 -49 -46
-81 -104 -57 -104 10 0 221 57 280 76 9 3 17 1 17 -4 0 -6 -11 -13 -25 -16
-50 -13 -254 -88 -268 -99 -9 -7 -18 -37 -22 -68 l-7 -56 59 -25 c32 -14 99
-37 149 -51 50 -15 104 -33 120 -42 16 -8 35 -15 43 -15 8 0 12 -3 9 -6 -4 -3
-82 15 -175 40 -93 25 -174 46 -181 46 -23 0 10 -59 58 -104 82 -77 233 -142
465 -201 96 -25 133 -30 143 -22 20 16 40 60 71 155 l29 87 336 3 336 2 0
1055 0 1055 125 0 c188 0 267 38 295 141 6 22 12 136 13 252 3 242 11 282 68
337 l37 35 -38 42 c-61 65 -70 113 -70 345 1 118 -3 214 -10 239 -15 54 -64
104 -118 118 -23 7 -42 16 -42 21 0 6 -53 10 -130 10 l-130 0 0 415 0 415
-570 0 -570 0 0 -260 0 -260 310 0 310 0 0 -155 0 -155 -1115 0 -1115 0 0 155
0 155 310 0 310 0 0 260 0 260 -570 0 -570 0 0 -415z m1058 -1103 c3 -280 -2
-313 -51 -369 -56 -64 -46 -63 -582 -63 -457 0 -488 1 -523 19 -46 23 -67 46
-87 94 -12 30 -15 86 -15 307 l0 270 628 -2 627 -3 3 -253z m2407 -12 c0 -146
-3 -277 -8 -292 -10 -38 -65 -98 -104 -114 -26 -11 -133 -14 -518 -14 -457 0
-488 1 -523 19 -42 22 -63 43 -86 88 -14 27 -16 73 -16 308 l0 275 628 -2 627
-3 0 -265z"/>
<path d="M5845 13793 c-209 -110 -138 -416 96 -416 140 0 249 145 207 275 -9
29 -18 42 -28 39 -8 -2 -32 -4 -54 -5 -52 -1 -80 33 -73 86 l5 38 -61 0 c-36
-1 -74 -7 -92 -17z"/>
<path d="M7635 13793 c-81 -42 -125 -113 -125 -199 0 -101 67 -186 168 -213
150 -41 298 108 262 261 -13 52 -25 67 -43 49 -20 -20 -67 -12 -94 15 -21 21
-25 32 -20 65 l5 39 -61 0 c-36 -1 -74 -7 -92 -17z"/>
<path d="M3011 14579 c-315 -35 -604 -135 -841 -291 -116 -75 -289 -246 -377
-371 -202 -286 -323 -718 -323 -1148 0 -341 47 -568 170 -826 149 -311 348
-514 645 -658 280 -136 650 -215 1010 -215 98 0 397 24 435 35 8 2 76 11 150
20 141 17 306 51 315 65 3 4 30 178 60 386 30 209 57 388 60 400 4 20 1 20
-86 -13 -207 -78 -432 -119 -705 -129 -283 -11 -498 23 -671 107 -73 36 -103
58 -178 134 -97 97 -144 167 -182 273 -49 134 -58 202 -57 422 1 352 50 553
185 751 88 131 256 244 424 286 100 25 417 24 569 -1 141 -23 354 -84 480
-136 54 -22 100 -39 103 -36 4 4 109 687 115 750 3 28 0 31 -57 49 -273 85
-390 112 -585 133 -167 18 -546 26 -659 13z"/>
<path d="M9410 12831 l0 -1701 703 0 c696 0 836 5 1027 36 219 37 476 139 670
269 105 69 250 212 317 311 94 139 179 322 227 491 100 349 94 875 -13 1254
-148 522 -515 860 -1064 980 -236 52 -243 52 -1079 56 l-788 4 0 -1700z m1468
943 c151 -31 269 -98 371 -210 87 -95 168 -278 197 -448 23 -125 23 -457 0
-582 -49 -279 -183 -487 -376 -581 -144 -71 -273 -92 -557 -93 l-153 0 0 965
0 965 220 0 c163 0 241 -4 298 -16z"/>
<path d="M13010 12830 l0 -1700 1078 0 1078 0 57 358 c32 196 57 360 57 365 0
4 -295 7 -655 7 l-655 0 0 320 0 320 488 0 488 0 57 358 c32 196 57 360 57
365 0 4 -245 7 -545 7 l-545 0 0 285 0 285 598 0 598 0 57 358 c32 196 57 360
57 365 0 4 -511 7 -1135 7 l-1135 0 0 -1700z"/>
<path d="M16730 12830 l0 -1700 375 0 375 0 2 708 3 707 620 0 620 0 3 -707 2
-708 375 0 375 0 0 1700 0 1700 -375 0 -375 0 -2 -672 -3 -673 -620 0 -620 0
-3 673 -2 672 -375 0 -375 0 0 -1700z"/>
<path d="M20170 12830 l0 -1700 1028 0 1027 0 53 308 c29 169 52 310 52 314 0
5 -316 9 -702 10 l-703 3 0 390 0 390 545 3 546 2 47 308 c26 169 47 310 47
314 0 5 -267 9 -592 10 l-593 3 0 355 0 355 650 3 650 2 53 308 c29 169 52
310 52 315 0 4 -486 7 -1080 7 l-1080 0 0 -1700z"/>
<path d="M22880 12830 l0 -1700 960 0 960 0 5 23 c3 12 23 139 45 282 22 143
42 275 45 292 l6 33 -628 2 -628 3 -3 1383 -2 1382 -380 0 -380 0 0 -1700z"/>
<path d="M25370 12830 l0 -1700 380 0 380 0 0 560 0 560 318 0 c174 0 358 5
407 11 407 50 705 262 850 606 75 178 101 342 92 573 -6 161 -24 270 -68 405
-90 282 -329 499 -674 614 -192 64 -190 64 -972 68 l-713 4 0 -1701z m1270
1079 c142 -22 256 -105 318 -232 43 -88 62 -175 62 -293 0 -289 -140 -479
-378 -514 -37 -5 -167 -10 -289 -10 l-223 0 0 530 0 530 223 0 c122 0 251 -5
287 -11z"/>
<path d="M28350 12830 l0 -1700 1029 0 c972 0 1030 1 1035 18 3 9 26 139 51
287 25 149 48 282 51 297 l6 28 -704 2 -703 3 -3 393 -2 392 545 0 545 0 5 23
c5 20 95 593 95 603 0 2 -267 5 -592 6 l-593 3 -3 358 -2 357 649 0 c610 0
650 1 655 18 3 9 26 139 51 287 25 149 48 282 51 298 l6 27 -1086 0 -1086 0 0
-1700z"/>
<path d="M31070 12830 l0 -1700 380 0 380 0 0 560 0 560 201 -2 200 -3 273
-555 272 -555 418 -3 c333 -2 417 0 413 10 -2 7 -156 285 -341 618 -186 332
-333 606 -328 608 45 15 192 121 258 187 194 194 283 413 301 745 10 200 -29
460 -93 612 -90 216 -289 400 -544 506 -259 107 -304 112 -1122 112 l-668 0 0
-1700z m1270 1080 c232 -37 379 -242 380 -531 0 -197 -78 -365 -208 -447 -90
-58 -132 -64 -419 -70 l-263 -4 0 531 0 531 223 0 c122 0 251 -5 287 -10z"/>
<path d="M4700 14309 c-115 -63 -203 -181 -229 -307 -7 -33 -11 -190 -11 -416
0 -337 2 -369 20 -429 37 -120 128 -225 245 -284 41 -21 47 -22 34 -7 -52 60
-69 162 -68 404 0 214 -15 266 -86 291 -30 11 -35 18 -33 39 2 16 10 26 23 28
34 6 73 52 85 100 7 27 11 114 11 203 -1 196 11 299 44 362 13 26 23 47 22 47
-1 0 -27 -14 -57 -31z"/>
<path d="M8935 14297 c35 -62 45 -141 45 -341 1 -242 14 -292 89 -326 25 -11
31 -19 29 -39 -2 -17 -10 -27 -23 -29 -34 -6 -65 -43 -80 -96 -11 -36 -15
-100 -15 -231 0 -194 -10 -276 -41 -337 l-20 -39 37 16 c78 33 166 121 216
217 l32 63 9 285 c10 344 5 535 -17 607 -34 108 -160 248 -253 281 l-31 10 23
-41z"/>
<path d="M6152 12288 c-25 -25 -11 -48 61 -98 39 -29 115 -72 167 -98 59 -29
118 -67 155 -101 33 -30 93 -70 135 -90 69 -33 82 -36 166 -36 84 0 95 3 165
37 42 21 98 58 125 84 30 28 85 63 142 90 95 44 198 112 240 157 17 18 22 32
17 46 -10 33 -45 25 -105 -24 -73 -60 -205 -127 -316 -161 -81 -25 -104 -28
-254 -28 -143 -1 -176 2 -250 22 -108 30 -230 87 -335 157 -87 59 -94 62 -113
43z"/>
<path d="M6702 10971 c4 -38 4 -96 0 -130 l-9 -61 141 0 142 0 0 130 0 130
-141 0 -141 0 8 -69z"/>
<path d="M17900 10759 c-77 -13 -153 -51 -183 -90 -56 -75 -62 -116 -62 -444
0 -265 2 -306 18 -355 49 -145 148 -190 422 -190 274 0 373 45 422 190 16 49
18 90 18 355 0 353 -7 391 -79 460 -66 64 -120 77 -326 81 -96 1 -200 -1 -230
-7z m424 -125 c49 -25 74 -58 86 -110 14 -57 12 -560 -1 -609 -6 -22 -26 -54
-45 -72 -48 -45 -113 -56 -303 -51 -179 4 -221 18 -262 85 -24 38 -24 40 -24
348 0 308 0 310 23 348 46 73 96 86 317 84 150 -2 175 -4 209 -23z"/>
<path d="M28820 10755 c-120 -27 -178 -92 -199 -225 -14 -84 -14 -526 -1 -609
13 -77 50 -152 87 -179 65 -46 127 -57 318 -57 198 0 267 13 323 60 46 39 73
114 79 221 l6 94 -60 0 -60 0 -5 -83 c-8 -155 -42 -180 -253 -185 -180 -5
-232 6 -279 58 -45 50 -48 78 -44 420 3 252 5 278 22 305 48 73 103 89 301 83
202 -5 242 -31 253 -164 l5 -64 60 0 60 0 -6 75 c-10 136 -60 209 -165 242
-69 22 -357 27 -442 8z"/>
<path d="M16750 10215 l0 -525 60 0 60 0 0 205 0 205 193 0 c290 0 365 20 408
107 22 45 24 60 24 218 0 163 -1 172 -25 214 -49 86 -120 101 -467 101 l-253
0 0 -525z m570 397 c55 -27 61 -49 58 -203 -4 -199 -4 -199 -310 -199 l-198 0
0 210 0 210 208 0 c177 0 212 -3 242 -18z"/>
<path d="M18715 10618 c18 -68 81 -304 140 -525 l108 -403 76 0 76 0 119 448
c66 246 122 453 126 460 3 7 62 -195 131 -448 l124 -460 74 2 75 3 142 520
141 520 -54 3 c-31 2 -57 1 -60 -2 -3 -2 -57 -202 -120 -443 -64 -241 -119
-441 -122 -445 -4 -4 -61 195 -126 442 l-120 450 -82 0 c-46 0 -83 -2 -83 -5
0 -11 -233 -881 -238 -889 -4 -7 -176 626 -236 867 -6 26 -9 27 -65 27 l-59 0
33 -122z"/>
<path d="M20220 10215 l0 -525 365 0 365 0 0 55 0 55 -305 0 -305 0 0 190 0
190 295 0 295 0 0 55 0 55 -295 0 -295 0 0 170 0 170 305 0 305 0 0 55 0 55
-365 0 -365 0 0 -525z"/>
<path d="M21140 10215 l0 -525 60 0 60 0 0 205 0 205 215 0 c320 0 318 2 323
-247 l4 -163 60 0 60 0 -4 173 c-4 203 -14 238 -84 271 l-41 20 41 20 c72 37
81 66 81 256 0 152 -2 168 -23 207 -46 87 -120 103 -484 103 l-268 0 0 -525z
m606 393 c43 -24 54 -61 54 -190 0 -123 -13 -166 -58 -189 -20 -10 -87 -15
-254 -17 l-228 -3 0 211 0 211 228 -3 c192 -3 232 -6 258 -20z"/>
<path d="M22150 10215 l0 -525 365 0 365 0 0 55 0 55 -305 0 -305 0 0 190 0
190 295 0 295 0 0 55 0 55 -295 0 -295 0 0 170 0 170 305 0 305 0 0 55 0 55
-365 0 -365 0 0 -525z"/>
<path d="M23070 10214 l0 -525 318 3 c301 3 320 5 374 26 69 28 119 80 144
153 17 48 19 86 19 344 0 323 -6 361 -68 432 -71 81 -137 93 -504 93 l-283 0
0 -526z m656 389 c28 -15 46 -34 60 -64 17 -40 19 -68 19 -324 0 -324 -4 -344
-78 -386 -41 -23 -50 -24 -289 -27 l-248 -4 0 417 0 417 248 -4 c231 -3 250
-4 288 -25z"/>
<path d="M24640 10215 l0 -527 298 4 c240 4 307 8 347 21 92 30 132 96 142
231 6 93 -9 190 -35 226 -10 14 -39 36 -64 50 l-45 25 31 15 c67 33 97 132 82
278 -11 102 -35 148 -93 175 -46 21 -64 22 -355 25 l-308 4 0 -527z m573 404
c51 -14 67 -52 67 -156 0 -88 -19 -140 -60 -160 -18 -9 -89 -13 -242 -13
l-218 0 0 170 0 170 208 0 c115 0 224 -5 245 -11z m41 -462 c45 -30 59 -77 54
-188 -4 -112 -19 -143 -75 -158 -21 -6 -135 -11 -255 -11 l-218 0 0 191 0 191
233 -4 c205 -3 236 -5 261 -21z"/>
<path d="M25450 10734 c0 -3 95 -134 210 -292 l210 -285 0 -234 0 -233 60 0
60 0 0 235 0 234 210 285 c116 156 210 287 210 290 0 3 -28 6 -63 6 l-63 0
-139 -192 c-76 -106 -156 -217 -178 -246 l-38 -53 -177 245 -177 246 -62 0
c-35 0 -63 -3 -63 -6z"/>
<path d="M26830 10685 l0 -55 165 0 165 0 0 -470 0 -470 60 0 60 0 0 470 0
470 165 0 165 0 0 55 0 55 -390 0 -390 0 0 -55z"/>
<path d="M27720 10215 l0 -525 365 0 365 0 0 55 0 55 -305 0 -305 0 0 190 0
190 295 0 295 0 0 55 0 55 -295 0 -295 0 0 170 0 170 305 0 305 0 0 55 0 55
-365 0 -365 0 0 -525z"/>
<path d="M29630 10215 l0 -525 60 0 60 0 0 245 0 245 295 0 295 0 0 -245 0
-245 60 0 60 0 0 525 0 525 -60 0 -60 0 0 -225 0 -225 -295 0 -295 0 0 225 0
225 -60 0 -60 0 0 -525z"/>
<path d="M30720 10215 l0 -525 60 0 60 0 0 205 0 205 193 0 c290 0 365 20 408
107 22 45 24 60 24 218 0 163 -1 172 -25 214 -49 86 -120 101 -467 101 l-253
0 0 -525z m570 397 c55 -27 61 -49 58 -203 -4 -199 -4 -199 -310 -199 l-198 0
0 210 0 210 208 0 c177 0 212 -3 242 -18z"/>
<path d="M31660 10215 l0 -525 60 0 60 0 0 525 0 525 -60 0 -60 0 0 -525z"/>
<path d="M32030 10215 l0 -525 355 0 355 0 0 55 0 55 -295 0 -295 0 0 470 0
470 -60 0 -60 0 0 -525z"/>
<path d="M32890 10215 l0 -525 365 0 365 0 0 55 0 55 -305 0 -305 0 0 190 0
190 295 0 295 0 0 55 0 55 -295 0 -295 0 0 170 0 170 305 0 305 0 0 55 0 55
-365 0 -365 0 0 -525z"/>
</g>
</svg>
